<?xml version="1.0" encoding="UTF-8" standalone="no"?>
<svg
   xmlns:dc="http://purl.org/dc/elements/1.1/"
   xmlns:cc="http://creativecommons.org/ns#"
   xmlns:rdf="http://www.w3.org/1999/02/22-rdf-syntax-ns#"
   xmlns:svg="http://www.w3.org/2000/svg"
   xmlns="http://www.w3.org/2000/svg"
   xmlns:sodipodi="http://sodipodi.sourceforge.net/DTD/sodipodi-0.dtd"
   xmlns:inkscape="http://www.inkscape.org/namespaces/inkscape"
   width="166.69833mm"
   height="60mm"
   viewBox="0 0 166.69833 60"
   version="1.1"
   id="svg8"
   inkscape:version="1.0.1 (3bc2e813f5, 2020-09-07)"
   sodipodi:docname="logo.svg">
  <defs
     id="defs2" />
  <sodipodi:namedview
     id="base"
     pagecolor="#ffffff"
     bordercolor="#666666"
     borderopacity="1.0"
     inkscape:pageopacity="0.0"
     inkscape:pageshadow="2"
     inkscape:zoom="0.35"
     inkscape:cx="400"
     inkscape:cy="559.99998"
     inkscape:document-units="mm"
     inkscape:current-layer="layer1"
     inkscape:document-rotation="0"
     showgrid="false"
     fit-margin-top="0"
     fit-margin-left="0"
     fit-margin-right="0"
     fit-margin-bottom="0"
     inkscape:window-width="1920"
     inkscape:window-height="1017"
     inkscape:window-x="-8"
     inkscape:window-y="-8"
     inkscape:window-maximized="1" />
  <metadata
     id="metadata5">
    <rdf:RDF>
      <cc:Work
         rdf:about="">
        <dc:format>image/svg+xml</dc:format>
        <dc:type
           rdf:resource="http://purl.org/dc/dcmitype/StillImage" />
        <dc:title></dc:title>
      </cc:Work>
    </rdf:RDF>
  </metadata>
  <g
     inkscape:label="Layer 1"
     inkscape:groupmode="layer"
     id="layer1">
    <g
       id="g841"
       inkscape:label="black red"
       transform="matrix(0.3479319,0,0,-0.3479319,-63.105696,237.05833)">
      <path
         d="m 552.5572,637.2187 h 25.6484 l 21.0595,-62.2604 22.1573,62.2604 h 24.9477 l -32.1511,-87.7513 -5.7975,-15.8385 c -2.1364,-5.3017 -4.1558,-9.3402 -6.0868,-12.1527 -1.9057,-2.7828 -4.1306,-5.0667 -6.62,-6.7921 -2.4891,-1.7587 -5.5622,-3.106 -9.2225,-4.0717 -13.7495,-3.6567 -23.0899,-0.8334 -30.928,2.3204 l 5.3895,16.5399 c 6.9795,-1.351 14.8912,-2.651 20.1232,3.7743 2.6909,3.3078 4.7726,7.5263 6.2047,12.6187 z"
         style="fill:#000001;fill-opacity:1;fill-rule:nonzero;stroke:none"
         id="path843" />
      <path
         d="m 455.0689,546.0418 v 115.0633 h 24.0698 v -34.6623 c 7.4345,8.4628 16.2204,12.7069 26.4087,12.7069 11.0991,0 20.2626,-4.0091 27.521,-12.0606 7.2624,-8.0515 10.8936,-19.6166 10.8936,-34.6989 0,-15.5741 -3.6902,-27.58 -11.0951,-36.0133 -7.4089,-8.4039 -16.4262,-12.6187 -26.9963,-12.6187 -5.2135,0 -10.3351,1.3476 -15.4015,4.013 -5.0669,2.6912 -9.4283,6.5571 -13.0893,11.6532 v -13.3826 z m 23.7175,47.3471 c 0,-9.4576 1.4941,-16.4849 4.4793,-20.9971 4.1851,-6.4398 9.722,-9.6596 16.6606,-9.6596 5.3275,0 9.8652,2.2838 13.6435,6.851 3.7485,4.5672 5.6208,11.7706 5.6208,21.5771 0,10.4564 -1.9021,17.979 -5.6795,22.6051 -3.778,4.6262 -8.606,6.9389 -14.5211,6.9389 -5.7968,0 -10.5993,-2.2541 -14.436,-6.7626 -3.8366,-4.5085 -5.7676,-11.3595 -5.7676,-20.5528"
         style="fill:#000001;fill-opacity:1;fill-rule:nonzero;stroke:none"
         id="path845" />
      <path
         d="M 410.0491,546.0418 H 385.979 v 91.1769 h 22.3112 v -12.9418 c 3.8367,6.1202 7.2915,10.133 10.3646,12.0347 3.077,1.9021 6.5608,2.8381 10.453,2.8381 5.5069,0 10.8045,-1.52 15.9007,-4.5377 l -7.4676,-21.0229 c -4.0677,2.6362 -7.846,3.9543 -11.3301,3.9543 -3.3959,0 -6.2671,-0.9363 -8.6097,-2.783 -2.3422,-1.8726 -4.1853,-5.2098 -5.5326,-10.071 -1.3473,-4.8608 -2.0194,-15.0491 -2.0194,-30.539 z"
         style="fill:#000001;fill-opacity:1;fill-rule:nonzero;stroke:none"
         id="path847" />
      <path
         d="m 342.7481,574.8517 24.0701,-4.0385 c -3.0768,-8.8152 -7.9668,-15.5192 -14.6126,-20.1453 -6.6742,-4.5967 -15.0194,-6.9097 -25.0061,-6.9097 -15.8383,0 -27.5797,5.1843 -35.1652,15.5486 -5.9987,8.316 -9.017,18.7979 -9.017,31.4753 0,15.1081 3.9543,26.9668 11.8298,35.5139 7.8752,8.5802 17.8614,12.8537 29.9259,12.8537 13.5252,0 24.213,-4.4791 32.059,-13.4374 7.8163,-8.9583 11.5651,-22.6933 11.2158,-41.1973 h -60.2591 c 0.1763,-7.1447 2.1072,-12.7069 5.8266,-16.6904 3.6896,-3.9798 8.316,-5.9735 13.8192,-5.9735 3.778,0 6.9392,1.0282 9.4869,3.0768 2.5776,2.0486 4.5086,5.3566 5.8267,9.9238 z m 1.4062,24.4224 c -0.176,6.9979 -1.9604,12.3251 -5.3858,15.9563 -3.4257,3.6603 -7.5852,5.4739 -12.505,5.4739 -5.239,0 -9.5755,-1.9309 -13.0009,-5.7676 -3.4253,-3.8367 -5.0918,-9.076 -5.0334,-15.6626 z"
         style="fill:#000001;fill-opacity:1;fill-rule:nonzero;stroke:none"
         id="path849" />
      <path
         d="m 218.1212,546.0418 -36.7475,91.1769 h 25.3 l 17.1564,-46.5247 4.9785,-15.5486 c 1.3181,3.9543 2.1663,6.561 2.4897,7.8165 0.8184,2.5775 1.6668,5.1548 2.6028,7.7321 l 17.3917,46.5247 h 24.7711 L 239.845,546.0418 Z"
         style="fill:#000001;fill-opacity:1;fill-rule:nonzero;stroke:none"
         id="path851" />
      <g
         id="g853">
        <path
           d="m 638.5637,649.9599 c 8.6349,-3.1374 17.9096,1.1942 20.9518,9.5675 3.0421,8.3729 -1.2895,17.6482 -9.9244,20.7853 -8.6349,3.1374 -17.9099,-1.1942 -20.952,-9.5675 -3.0422,-8.3733 1.2898,-17.6482 9.9246,-20.7853"
           style="fill:#ff0009;fill-opacity:1;fill-rule:nonzero;stroke:none"
           id="path855" />
      </g>
    </g>
  </g>
</svg>
