<?xml version="1.0" encoding="UTF-8" standalone="no"?>
<svg
   width="24px"
   height="24px"
   viewBox="0 0 24 24"
   version="1.1"
   id="svg105"
   sodipodi:docname="ClockHotel.svg"
   inkscape:version="1.1 (c68e22c387, 2021-05-23)"
   xmlns:inkscape="http://www.inkscape.org/namespaces/inkscape"
   xmlns:sodipodi="http://sodipodi.sourceforge.net/DTD/sodipodi-0.dtd"
   xmlns="http://www.w3.org/2000/svg"
   xmlns:svg="http://www.w3.org/2000/svg"
   xmlns:rdf="http://www.w3.org/1999/02/22-rdf-syntax-ns#"
   xmlns:cc="http://creativecommons.org/ns#"
   xmlns:dc="http://purl.org/dc/elements/1.1/">
  <sodipodi:namedview
     id="namedview107"
     pagecolor="#ffffff"
     bordercolor="#666666"
     borderopacity="1.0"
     inkscape:pageshadow="2"
     inkscape:pageopacity="0.0"
     inkscape:pagecheckerboard="0"
     showgrid="false"
     inkscape:zoom="23.835391"
     inkscape:cx="5.600915"
     inkscape:cy="10.803263"
     inkscape:window-width="1920"
     inkscape:window-height="1017"
     inkscape:window-x="-8"
     inkscape:window-y="-8"
     inkscape:window-maximized="1"
     inkscape:current-layer="svg105" />
  <!-- Generator: Sketch 50.2 (55047) - http://www.bohemiancoding.com/sketch -->
  <title
     id="title95">Stockholm-icons / Home / Clock</title>
  <desc
     id="desc97">Created with Sketch.</desc>
  <defs
     id="defs99" />
  <g
     id="Stockholm-icons-/-Home-/-Clock"
     stroke="none"
     stroke-width="1"
     fill="none"
     fill-rule="evenodd">
    <rect
       id="bound"
       x="0"
       y="0"
       width="24"
       height="24" />
    <path
       d="M12,22 C7.02943725,22 3,17.9705627 3,13 C3,8.02943725 7.02943725,4 12,4 C16.9705627,4 21,8.02943725 21,13 C21,17.9705627 16.9705627,22 12,22 Z"
       id="Mask"
       fill="#000000"
       opacity="0.3" />
    <path
       d="M11.9630156,7.5 L12.0475062,7.5 C12.3043819,7.5 12.5194647,7.69464724 12.5450248,7.95024814 L13,12.5 L16.2480695,14.3560397 C16.403857,14.4450611 16.5,14.6107328 16.5,14.7901613 L16.5,15 C16.5,15.2109164 16.3290185,15.3818979 16.1181021,15.3818979 C16.0841582,15.3818979 16.0503659,15.3773725 16.0176181,15.3684413 L11.3986612,14.1087258 C11.1672824,14.0456225 11.0132986,13.8271186 11.0316926,13.5879956 L11.4644883,7.96165175 C11.4845267,7.70115317 11.7017474,7.5 11.9630156,7.5 Z"
       id="Path-107"
       fill="#000000" />
  </g>
  <metadata
     id="metadata189">
    <rdf:RDF>
      <cc:Work
         rdf:about="">
        <dc:title>Stockholm-icons / Home / Clock</dc:title>
      </cc:Work>
    </rdf:RDF>
  </metadata>
  <text
     xml:space="preserve"
     style="font-style:normal;font-weight:normal;font-size:10.6667px;line-height:1.25;font-family:sans-serif;fill:#000000;fill-opacity:1;stroke:none"
     x="15.453499"
     y="9.5090456"
     id="text7541"><tspan
       sodipodi:role="line"
       id="tspan7539"
       x="15.453499"
       y="9.5090456"
       style="font-size:10.6667px">H</tspan></text>
</svg>
