<?xml version="1.0" encoding="UTF-8" standalone="no"?>
<svg
   xmlns:dc="http://purl.org/dc/elements/1.1/"
   xmlns:cc="http://creativecommons.org/ns#"
   xmlns:rdf="http://www.w3.org/1999/02/22-rdf-syntax-ns#"
   xmlns:svg="http://www.w3.org/2000/svg"
   xmlns="http://www.w3.org/2000/svg"
   xmlns:sodipodi="http://sodipodi.sourceforge.net/DTD/sodipodi-0.dtd"
   xmlns:inkscape="http://www.inkscape.org/namespaces/inkscape"
   width="24px"
   height="24px"
   viewBox="0 0 24 24"
   version="1.1"
   id="svg12"
   sodipodi:docname="Error-circle-color.svg"
   inkscape:version="1.0.1 (3bc2e813f5, 2020-09-07)">
  <metadata
     id="metadata16">
    <rdf:RDF>
      <cc:Work
         rdf:about="">
        <dc:format>image/svg+xml</dc:format>
        <dc:type
           rdf:resource="http://purl.org/dc/dcmitype/StillImage" />
      </cc:Work>
    </rdf:RDF>
  </metadata>
  <sodipodi:namedview
     pagecolor="#ffffff"
     bordercolor="#666666"
     borderopacity="1"
     objecttolerance="10"
     gridtolerance="10"
     guidetolerance="10"
     inkscape:pageopacity="0"
     inkscape:pageshadow="2"
     inkscape:window-width="1920"
     inkscape:window-height="1017"
     id="namedview14"
     showgrid="false"
     inkscape:zoom="35.416667"
     inkscape:cx="12"
     inkscape:cy="12"
     inkscape:window-x="-8"
     inkscape:window-y="-1"
     inkscape:window-maximized="1"
     inkscape:current-layer="Stockholm-icons-/-Code-/-Error-circle" />
  <!-- Generator: Sketch 50.2 (55047) - http://www.bohemiancoding.com/sketch -->
  <title
     id="title2">Stockholm-icons / Code / Error-circle</title>
  <desc
     id="desc4">Created with Sketch.</desc>
  <defs
     id="defs6" />
  <g
     id="Stockholm-icons-/-Code-/-Error-circle"
     stroke="none"
     stroke-width="1"
     fill="none"
     fill-rule="evenodd">
    <rect
       id="bound"
       x="0"
       y="0"
       width="24"
       height="24" />
    <circle
       id="Oval-5"
       fill="#000000"
       opacity="0.3"
       cx="12"
       cy="12"
       r="10"
       style="fill:#ff0000" />
    <path
       d="M12.0355339,10.6213203 L14.863961,7.79289322 C15.2544853,7.40236893 15.8876503,7.40236893 16.2781746,7.79289322 C16.6686989,8.18341751 16.6686989,8.81658249 16.2781746,9.20710678 L13.4497475,12.0355339 L16.2781746,14.863961 C16.6686989,15.2544853 16.6686989,15.8876503 16.2781746,16.2781746 C15.8876503,16.6686989 15.2544853,16.6686989 14.863961,16.2781746 L12.0355339,13.4497475 L9.20710678,16.2781746 C8.81658249,16.6686989 8.18341751,16.6686989 7.79289322,16.2781746 C7.40236893,15.8876503 7.40236893,15.2544853 7.79289322,14.863961 L10.6213203,12.0355339 L7.79289322,9.20710678 C7.40236893,8.81658249 7.40236893,8.18341751 7.79289322,7.79289322 C8.18341751,7.40236893 8.81658249,7.40236893 9.20710678,7.79289322 L12.0355339,10.6213203 Z"
       id="Combined-Shape"
       fill="#000000" />
  </g>
</svg>
