<?xml version="1.0" encoding="UTF-8" standalone="no"?>
<svg
   xmlns:dc="http://purl.org/dc/elements/1.1/"
   xmlns:cc="http://creativecommons.org/ns#"
   xmlns:rdf="http://www.w3.org/1999/02/22-rdf-syntax-ns#"
   xmlns:svg="http://www.w3.org/2000/svg"
   xmlns="http://www.w3.org/2000/svg"
   xmlns:sodipodi="http://sodipodi.sourceforge.net/DTD/sodipodi-0.dtd"
   xmlns:inkscape="http://www.inkscape.org/namespaces/inkscape"
   width="24px"
   height="24px"
   viewBox="0 0 24 24"
   version="1.1"
   id="svg13"
   sodipodi:docname="Group-deleted.svg"
   inkscape:version="1.0.1 (3bc2e813f5, 2020-09-07)">
  <metadata
     id="metadata17">
    <rdf:RDF>
      <cc:Work
         rdf:about="">
        <dc:format>image/svg+xml</dc:format>
        <dc:type
           rdf:resource="http://purl.org/dc/dcmitype/StillImage" />
      </cc:Work>
    </rdf:RDF>
  </metadata>
  <sodipodi:namedview
     pagecolor="#ffffff"
     bordercolor="#666666"
     borderopacity="1"
     objecttolerance="10"
     gridtolerance="10"
     guidetolerance="10"
     inkscape:pageopacity="0"
     inkscape:pageshadow="2"
     inkscape:window-width="1920"
     inkscape:window-height="1017"
     id="namedview15"
     showgrid="false"
     inkscape:zoom="12.521683"
     inkscape:cx="-11.239419"
     inkscape:cy="11.531213"
     inkscape:window-x="-8"
     inkscape:window-y="-8"
     inkscape:window-maximized="1"
     inkscape:current-layer="Stockholm-icons-/-Code-/-Error-circle" />
  <!-- Generator: Sketch 50.2 (55047) - http://www.bohemiancoding.com/sketch -->
  <title
     id="title2">Stockholm-icons / Communication / Group</title>
  <desc
     id="desc4">Created with Sketch.</desc>
  <defs
     id="defs6" />
  <g
     id="Stockholm-icons-/-Communication-/-Group"
     stroke="none"
     stroke-width="1"
     fill="none"
     fill-rule="evenodd">
    <polygon
       id="Shape"
       points="0 0 24 0 24 24 0 24" />
    <path
       d="M18,14 C16.3431458,14 15,12.6568542 15,11 C15,9.34314575 16.3431458,8 18,8 C19.6568542,8 21,9.34314575 21,11 C21,12.6568542 19.6568542,14 18,14 Z M9,11 C6.790861,11 5,9.209139 5,7 C5,4.790861 6.790861,3 9,3 C11.209139,3 13,4.790861 13,7 C13,9.209139 11.209139,11 9,11 Z"
       id="Combined-Shape"
       fill="#000000"
       fill-rule="nonzero"
       opacity="0.3" />
    <path
       d="M17.6011961,15.0006174 C21.0077043,15.0378534 23.7891749,16.7601418 23.9984937,20.4 C24.0069246,20.5466056 23.9984937,21 23.4559499,21 L19.6,21 C19.6,18.7490654 18.8562935,16.6718327 17.6011961,15.0006174 Z M0.00065168429,20.1992055 C0.388258525,15.4265159 4.26191235,13 8.98334134,13 C13.7712164,13 17.7048837,15.2931929 17.9979143,20.2 C18.0095879,20.3954741 17.9979143,21 17.2466999,21 C13.541124,21 8.03472472,21 0.727502227,21 C0.476712155,21 -0.0204617505,20.45918 0.00065168429,20.1992055 Z"
       id="path10"
       fill="#000000"
       fill-rule="nonzero" />
  </g>
  <g
     id="Stockholm-icons-/-Code-/-Error-circle"
     stroke="none"
     stroke-width="1"
     fill="none"
     fill-rule="evenodd"
     transform="translate(-46.73974,-10.322909)">
    <rect
       id="bound"
       x="0"
       y="0"
       width="24"
       height="24" />
    <path
       d="m 65.028017,14.829523 2.806268,-2.806266 c 0.387465,-0.387465 1.015669,-0.387465 1.403135,0 0.387463,0.387463 0.387463,1.015669 0,1.403135 l -2.806268,2.806266 2.806268,2.806268 c 0.387463,0.387465 0.387463,1.015669 0,1.403135 -0.387466,0.387463 -1.01567,0.387463 -1.403135,0 l -2.806268,-2.806268 -2.806266,2.806268 c -0.387466,0.387463 -1.015672,0.387463 -1.403135,0 -0.387465,-0.387466 -0.387465,-1.01567 0,-1.403135 l 2.806266,-2.806268 -2.806266,-2.806266 c -0.387465,-0.387466 -0.387465,-1.015672 0,-1.403135 0.387463,-0.387465 1.015669,-0.387465 1.403135,0 z"
       id="Combined-Shape-9"
       fill="#000000"
       style="stroke-width:0.992166" />
  </g>
</svg>
